# xmcd
#
# Track frame offsets:
#	150
#	12592
#	28993
#	41690
#	55625
#	71873
#	84827
#	102898
#	116468
#	137163
#	153436
#	169615
#	183625
#	195233
#
# Disc length: 2811 seconds
#
# Revision: 1
# Processed by: cddbd v1.5.1PL0 Copyright (c) Steve Scherf et al.
# Submitted via: EasyCDDAExtractor 7.1.1.1
#
DISCID=b70af90e
DTITLE=Garth Brooks - Sevens
DYEAR=1900
DGENRE=Country
TTITLE0=Longneck Bottle
TTITLE1=How You Ever Gonna Know
TTITLE2=She's Gonna Make It
TTITLE3=I Don't Have To Wonder
TTITLE4=Two Pina Coladas
TTITLE5=Cowboy Cadillac
TTITLE6=Fit For A King
TTITLE7=Do What You Gotta Do
TTITLE8=You Move Me
TTITLE9=In Another's Eyes
TTITLE10=When There's Know one Around
TTITLE11=A Friend To Me
TTITLE12=Take The Keys To My Heart
TTITLE13=Belleau Wood
EXTD=
EXTT0=
EXTT1=
EXTT2=
EXTT3=
EXTT4=
EXTT5=
EXTT6=
EXTT7=
EXTT8=
EXTT9=
EXTT10=
EXTT11=
EXTT12=
EXTT13=
PLAYORDER=
